<svg width="731" height="731" viewBox="0 0 731 731" fill="none" xmlns="http://www.w3.org/2000/svg">
<path fill-rule="evenodd" clip-rule="evenodd" d="M661.923 29.6228C622.87 -9.42955 559.553 -9.42968 520.5 29.6228L48.5815 501.543C34.6215 515.503 25.1058 533.283 21.2342 552.64L1.66518 650.487C-7.66442 697.133 33.4635 738.263 80.1115 728.933L177.956 709.363C197.315 705.493 215.095 695.977 229.055 682.017L700.973 210.096C740.027 171.044 740.027 107.728 700.973 68.6752L661.923 29.6228ZM567.64 76.7632C580.66 63.7458 601.763 63.7458 614.783 76.7632L653.833 115.816C666.853 128.833 666.853 149.938 653.833 162.956L564.78 252.009L478.59 165.816L567.64 76.7632ZM431.447 212.957L95.7218 548.683C91.0685 553.337 87.8968 559.263 86.6062 565.717L67.0372 663.56L164.882 643.99C171.335 642.7 177.262 639.53 181.915 634.877L517.64 299.149L431.447 212.957Z" fill="#0F0F0F"/>
</svg>
