<svg width="800" height="800" viewBox="0 0 800 800" fill="none" xmlns="http://www.w3.org/2000/svg">
<path d="M400 166.668C373.629 166.668 347.85 174.488 325.924 189.139C303.997 203.79 286.908 224.613 276.816 248.977C266.724 273.34 264.084 300.149 269.229 326.013C274.373 351.877 287.072 375.635 305.719 394.282C324.366 412.929 348.124 425.628 373.988 430.773C399.852 435.917 426.661 433.277 451.024 423.185C475.388 413.094 496.212 396.004 510.863 374.077C525.513 352.151 533.333 326.372 533.333 300.001C533.333 264.639 519.286 230.725 494.281 205.72C469.276 180.716 435.362 166.668 400 166.668ZM400 366.668C386.814 366.668 373.925 362.758 362.962 355.433C351.999 348.107 343.454 337.695 338.408 325.514C333.362 313.332 332.042 299.927 334.614 286.995C337.187 274.063 343.536 262.184 352.859 252.861C362.183 243.537 374.062 237.188 386.994 234.616C399.926 232.043 413.33 233.363 425.512 238.409C437.694 243.455 448.106 252 455.431 262.963C462.757 273.927 466.667 286.816 466.667 300.001C466.667 317.682 459.643 334.639 447.14 347.142C434.638 359.644 417.681 366.668 400 366.668Z" fill="black"/>
<path d="M400 33.3339C327.48 33.3339 256.589 54.8385 196.291 95.1284C135.993 135.418 88.9961 192.684 61.244 259.683C33.4919 326.683 26.2307 400.407 40.3786 471.534C54.5265 542.66 89.4481 607.994 140.727 659.273C192.007 710.552 257.34 745.474 328.467 759.622C399.593 773.77 473.318 766.508 540.317 738.756C607.317 711.004 664.582 664.008 704.872 603.71C745.162 543.412 766.667 472.52 766.667 400.001C766.887 351.787 757.554 304.008 739.205 259.423C720.857 214.837 693.856 174.328 659.764 140.236C625.672 106.144 585.163 79.1439 540.578 60.7953C495.992 42.4467 448.213 33.1132 400 33.3339ZM196.666 620.001C259.14 586.056 328.908 567.756 400 566.667C471.091 567.756 540.86 586.056 603.333 620.001C548.115 671.431 475.459 700.026 400 700.026C324.54 700.026 251.884 671.431 196.666 620.001ZM648.333 568.334C572.736 524.753 487.25 501.23 400 500.001C312.75 501.23 227.263 524.753 151.667 568.334C117.709 518.791 99.6838 460.063 99.9998 400.001C99.9998 320.436 131.607 244.129 187.868 187.869C244.129 131.608 320.435 100.001 400 100.001C479.565 100.001 555.871 131.608 612.132 187.869C668.393 244.129 700 320.436 700 400.001C700.316 460.063 682.291 518.791 648.333 568.334Z" fill="black"/>
</svg>
